<svg xmlns="http://www.w3.org/2000/svg" viewBox="0 0 1200 1600" role="img" aria-label="Stylized city map">
  <defs>
    <linearGradient id="bg" x1="0%" y1="0%" x2="100%" y2="100%">
      <stop offset="0%" stop-color="#f2f4f7"/>
      <stop offset="100%" stop-color="#d8dde5"/>
    </linearGradient>
    <pattern id="grid" width="60" height="60" patternUnits="userSpaceOnUse">
      <path d="M60 0H0V60" fill="none" stroke="#c5ccd7" stroke-width="1"/>
    </pattern>
  </defs>

  <rect width="1200" height="1600" fill="url(#bg)"/>
  <rect width="1200" height="1600" fill="url(#grid)" opacity="0.35"/>

  <g fill="none" stroke-linecap="round" stroke-linejoin="round">
    <path d="M-40 260 C200 190, 380 250, 620 180 S1040 140, 1240 220" stroke="#a9b2c0" stroke-width="42"/>
    <path d="M-80 640 C120 540, 360 600, 560 540 S980 500, 1260 620" stroke="#98a4b5" stroke-width="58"/>
    <path d="M40 980 C260 920, 500 960, 760 900 S1080 860, 1240 960" stroke="#b4bcc9" stroke-width="36"/>
    <path d="M120 1320 C300 1240, 520 1280, 760 1220 S1040 1160, 1220 1240" stroke="#a4adb9" stroke-width="50"/>
    <path d="M210 -80 C180 280, 300 520, 260 860 S320 1280, 280 1680" stroke="#aeb7c4" stroke-width="46"/>
    <path d="M560 -40 C500 320, 620 520, 560 840 S620 1220, 560 1640" stroke="#9da8b8" stroke-width="60"/>
    <path d="M910 -60 C860 260, 980 520, 900 860 S980 1260, 900 1660" stroke="#b7bfcb" stroke-width="40"/>
  </g>

  <g fill="#ffffff" opacity="0.88">
    <rect x="120" y="170" width="210" height="130" rx="20"/>
    <rect x="800" y="300" width="240" height="150" rx="24"/>
    <rect x="190" y="760" width="260" height="170" rx="24"/>
    <rect x="700" y="1020" width="280" height="180" rx="26"/>
    <rect x="360" y="1330" width="220" height="140" rx="22"/>
  </g>

  <g>
    <circle cx="700" cy="780" r="66" fill="#1a1f28" opacity="0.16"/>
    <path d="M700 600 C780 600, 842 664, 842 742 C842 864, 700 980, 700 980 C700 980, 558 864, 558 742 C558 664, 620 600, 700 600 Z" fill="#202632"/>
    <circle cx="700" cy="742" r="58" fill="#e9edf3"/>
    <circle cx="700" cy="742" r="22" fill="#202632"/>
  </g>

  <g fill="#333c4b" opacity="0.68" font-family="Arial, sans-serif" font-size="42" font-weight="700" letter-spacing="8">
    <text x="84" y="1540">LOCATION</text>
  </g>
</svg>
